<?xml version="1.0" encoding="UTF-8" standalone="no"?>
<svg
   xmlns:dc="http://purl.org/dc/elements/1.1/"
   xmlns:cc="http://creativecommons.org/ns#"
   xmlns:rdf="http://www.w3.org/1999/02/22-rdf-syntax-ns#"
   xmlns:svg="http://www.w3.org/2000/svg"
   xmlns="http://www.w3.org/2000/svg"
   xmlns:xlink="http://www.w3.org/1999/xlink"
   id="svg8"
   version="1.1"
   viewBox="0 0 210 297"
   height="297mm"
   width="210mm">
  <defs
     id="defs2">
    <linearGradient
       id="linearGradient5005">
      <stop
         id="stop5001"
         offset="0"
         style="stop-color:#8800aa;stop-opacity:1;" />
      <stop
         id="stop5003"
         offset="1"
         style="stop-color:#d42aff;stop-opacity:1" />
    </linearGradient>
    <linearGradient
       gradientUnits="userSpaceOnUse"
       y2="183.53897"
       x2="554.14502"
       y1="507.53897"
       x1="243.1517"
       id="linearGradient5007"
       xlink:href="#linearGradient5005" />
  </defs>
  <metadata
     id="metadata5">
    <rdf:RDF>
      <cc:Work
         rdf:about="">
        <dc:format>image/svg+xml</dc:format>
        <dc:type
           rdf:resource="http://purl.org/dc/dcmitype/StillImage" />
        <dc:title></dc:title>
      </cc:Work>
    </rdf:RDF>
  </metadata>
  <g
     id="layer1">
    <path
       id="path4880"
       transform="scale(0.26458333)"
       d="M 379.24414 190.29297 C 378.59478 190.31224 377.97835 190.58316 377.52539 191.04883 L 347.00586 225.10547 C 344.64356 227.46223 381.06055 194.58594 381.06055 194.58594 C 382.69761 192.9965 381.52482 190.22476 379.24414 190.29297 z M 423.9668 190.29297 C 423.31744 190.31224 422.70102 190.58316 422.24805 191.04883 L 322.76953 294.0625 C 320.31569 296.41877 425.7832 194.58594 425.7832 194.58594 C 427.42027 192.9965 426.24748 190.22476 423.9668 190.29297 z M 364.33398 190.29492 C 363.68463 190.3142 363.0682 190.58511 362.61523 191.05078 L 355.08594 202.11523 C 352.63184 204.47151 366.15039 194.58594 366.15039 194.58594 C 367.78387 192.9963 366.61232 190.22867 364.33398 190.29492 z M 394.15039 190.29492 C 393.50103 190.3142 392.88462 190.58511 392.43164 191.05078 L 338.92773 248.08984 C 336.47326 250.44611 395.9668 194.58594 395.9668 194.58594 C 397.60027 192.9963 396.42873 190.22867 394.15039 190.29492 z M 409.05664 190.29492 C 408.40728 190.3142 407.79087 190.58511 407.33789 191.05078 L 330.84961 271.07422 C 328.39577 273.4305 410.87305 194.58594 410.87305 194.58594 C 412.50652 192.9963 411.33498 190.22867 409.05664 190.29492 z M 437.58398 191.58398 C 436.93462 191.60326 436.31821 191.87418 435.86523 192.33984 L 314.68945 317.05078 C 312.23523 319.40705 439.40039 195.875 439.40039 195.875 C 441.03386 194.28536 439.86232 191.51773 437.58398 191.58398 z M 441.47266 202.60156 C 440.8233 202.62046 440.20688 202.89175 439.75391 203.35742 L 399.83203 246.81445 C 397.37719 249.17071 443.28906 206.89258 443.28906 206.89258 C 444.92254 205.30294 443.75099 202.53531 441.47266 202.60156 z M 445.35938 213.62305 C 444.71001 213.64194 444.0936 213.91324 443.64062 214.37891 L 403.0625 258.49219 C 400.60815 260.84845 447.17578 217.91406 447.17578 217.91406 C 448.80926 216.32443 447.63771 213.55681 445.35938 213.62305 z M 449.24805 224.64062 C 448.59838 224.66028 447.98193 224.93202 447.5293 225.39844 L 406.48633 269.97656 C 404.03315 272.33286 451.06445 228.93359 451.06445 228.93359 C 452.70148 227.34417 451.52873 224.57245 449.24805 224.64062 z M 453.13672 235.66016 C 452.48736 235.67943 451.87095 235.95035 451.41797 236.41602 L 409.94336 281.42578 C 407.4889 283.78204 454.95312 239.95117 454.95312 239.95117 C 456.5866 238.36154 455.41506 235.59392 453.13672 235.66016 z M 457.02539 246.67969 C 456.37603 246.69896 455.75962 246.96988 455.30664 247.43555 L 413.4043 292.87305 C 410.9507 295.22934 458.8418 250.9707 458.8418 250.9707 C 460.47527 249.38107 459.30373 246.61345 457.02539 246.67969 z M 394.60352 249.4707 C 393.95415 249.48998 393.33774 249.7609 392.88477 250.22656 L 306.61133 340.03516 C 304.15711 342.39143 396.41992 253.76172 396.41992 253.76172 C 398.0534 252.17208 396.88185 249.40446 394.60352 249.4707 z M 460.91406 257.69727 C 460.2644 257.71692 459.64795 257.98867 459.19531 258.45508 L 416.89062 304.29492 C 414.43616 306.65118 462.73047 261.99023 462.73047 261.99023 C 464.3675 260.4008 463.19474 257.62907 460.91406 257.69727 z M 464.80078 268.71875 C 464.15142 268.73803 463.53501 269.00894 463.08203 269.47461 L 420.44727 315.64453 C 417.9928 318.00079 466.61719 273.00977 466.61719 273.00977 C 468.25066 271.42013 467.07912 268.6525 464.80078 268.71875 z M 388.71484 270.26758 C 388.06548 270.28648 387.44907 270.55777 386.99609 271.02344 L 298.53125 363.02344 C 296.07741 365.37971 390.53125 274.55859 390.53125 274.55859 C 392.16472 272.96896 390.99318 270.20134 388.71484 270.26758 z M 468.68945 279.73633 C 468.04009 279.75523 467.42368 280.02652 466.9707 280.49219 L 424.00391 326.99609 C 421.55043 329.35239 470.50781 284.02734 470.50781 284.02734 C 472.14204 282.43705 470.96874 279.66825 468.68945 279.73633 z M 472.57812 290.75586 C 471.9285 290.77551 471.31201 291.0473 470.85938 291.51367 L 427.55859 338.34961 C 425.10424 340.70587 474.39453 295.04883 474.39453 295.04883 C 476.0316 293.45939 474.85881 290.68765 472.57812 290.75586 z M 382.61133 291.2793 C 381.96197 291.29857 381.34555 291.56949 380.89258 292.03516 L 290.45312 386.00977 C 287.9984 388.36604 384.42773 295.57031 384.42773 295.57031 C 386.06121 293.98068 384.88967 291.21306 382.61133 291.2793 z M 476.4668 301.77539 C 475.81744 301.79467 475.20102 302.06558 474.74805 302.53125 L 431.11523 349.69922 C 428.66202 352.05552 478.2832 306.06641 478.2832 306.06641 C 479.91668 304.47677 478.74513 301.70914 476.4668 301.77539 z M 376.10547 312.69141 C 375.45611 312.71068 374.83968 312.9816 374.38672 313.44727 L 282.375 408.99414 C 279.92053 411.35041 377.92188 316.98242 377.92188 316.98242 C 379.55532 315.39278 378.38378 312.62517 376.10547 312.69141 z M 480.35352 312.79492 C 479.70415 312.8142 479.08774 313.08512 478.63477 313.55078 L 434.66992 361.05078 C 432.21686 363.40708 482.16992 317.08594 482.16992 317.08594 C 483.8034 315.4963 482.63185 312.72867 480.35352 312.79492 z M 484.24023 323.81445 C 483.59129 323.83448 482.97558 324.10634 482.52344 324.57227 L 384.74609 425.88281 C 382.38226 428.2409 486.05859 328.10742 486.05859 328.10742 C 487.69645 326.51732 486.52194 323.74436 484.24023 323.81445 z M 369.49414 334.21094 C 368.84478 334.23021 368.22836 334.50113 367.77539 334.9668 L 274.29492 431.98242 C 271.84184 434.33869 371.31055 338.50195 371.31055 338.50195 C 372.94401 336.91231 371.77247 334.14469 369.49414 334.21094 z M 488.13086 334.83398 C 487.4815 334.85326 486.86509 335.12418 486.41211 335.58984 L 399.6543 425.88281 C 397.20059 428.23912 489.94727 339.125 489.94727 339.125 C 491.58074 337.53536 490.4092 334.76773 488.13086 334.83398 z M 492.01758 345.85352 C 491.36822 345.87279 490.7518 346.14371 490.29883 346.60938 L 414.56055 425.88281 C 412.10555 428.23908 493.83398 350.14453 493.83398 350.14453 C 495.46746 348.5549 494.29592 345.78728 492.01758 345.85352 z M 362.88281 355.72852 C 362.23318 355.74817 361.61671 356.01992 361.16406 356.48633 L 266.21484 454.9707 C 263.76137 457.32697 364.69922 360.02148 364.69922 360.02148 C 366.33626 358.43204 365.16351 355.66031 362.88281 355.72852 z M 495.90625 356.87305 C 495.25689 356.89232 494.64048 357.16324 494.1875 357.62891 L 429.46875 425.88281 C 427.01376 428.23908 497.72266 361.16406 497.72266 361.16406 C 499.35613 359.57443 498.18459 356.80681 495.90625 356.87305 z M 499.79492 367.89258 C 499.14556 367.91185 498.52915 368.18277 498.07617 368.64844 L 444.37695 425.88281 C 441.92325 428.23912 501.61133 372.18359 501.61133 372.18359 C 503.2448 370.59394 502.07326 367.8263 499.79492 367.89258 z M 379.17969 369.24609 C 378.53002 369.26575 377.91359 369.53752 377.46094 370.00391 L 252.68359 498.31641 C 250.3122 500.67313 380.99609 373.53906 380.99609 373.53906 C 382.63312 371.94964 381.46037 369.17793 379.17969 369.24609 z M 394.08789 369.24609 C 393.43823 369.26575 392.82178 369.53749 392.36914 370.00391 L 267.5918 498.31641 C 265.13746 500.67268 395.9043 373.53906 395.9043 373.53906 C 397.54136 371.94962 396.36857 369.17789 394.08789 369.24609 z M 364.27148 369.24805 C 363.62213 369.26732 363.0057 369.53824 362.55273 370.00391 L 258.13672 477.95508 C 255.68351 480.31135 366.08789 373.53906 366.08789 373.53906 C 367.72135 371.94942 366.54981 369.18181 364.27148 369.24805 z M 408.99414 369.24805 C 408.34478 369.26732 407.72837 369.53824 407.27539 370.00391 L 354.93164 425.88281 C 352.47717 428.23908 410.81055 373.53906 410.81055 373.53906 C 412.44398 371.94943 411.27244 369.18181 408.99414 369.24805 z M 423.90039 369.24805 C 423.25103 369.26732 422.63462 369.53824 422.18164 370.00391 L 369.83789 425.88281 C 367.47939 428.23957 425.7168 373.53906 425.7168 373.53906 C 427.35023 371.94943 426.17869 369.18181 423.90039 369.24805 z M 503.68359 378.91016 C 503.03423 378.92905 502.41782 379.20042 501.96484 379.66602 L 454.75195 430.41406 C 452.29821 432.7703 505.5 383.20117 505.5 383.20117 C 507.13347 381.61154 505.96193 378.8439 503.68359 378.91016 z M 507.57227 389.92969 C 506.9229 389.94859 506.30649 390.21998 505.85352 390.68555 L 458.24414 441.83008 C 455.7904 444.18631 509.38867 394.2207 509.38867 394.2207 C 511.02215 392.63107 509.8506 389.86343 507.57227 389.92969 z M 511.45898 400.95117 C 510.80962 400.97007 510.19321 401.24147 509.74023 401.70703 L 461.73633 453.24609 C 459.28266 455.6024 513.27539 405.24219 513.27539 405.24219 C 514.90886 403.65256 513.73732 400.88492 511.45898 400.95117 z M 515.34766 411.96875 C 514.6983 411.98765 514.08188 412.25901 513.62891 412.72461 L 465.22852 464.66016 C 462.77352 467.01643 517.16406 416.25977 517.16406 416.25977 C 518.79757 414.67013 517.62603 411.90246 515.34766 411.96875 z M 519.23633 422.98828 C 518.58697 423.00718 517.97055 423.27854 517.51758 423.74414 L 468.7207 476.07617 C 466.267 478.43248 521.05273 427.2793 521.05273 427.2793 C 522.68621 425.68967 521.51467 422.92203 519.23633 422.98828 z M 523.125 434.00586 C 522.47537 434.02476 521.85889 434.29728 521.40625 434.76367 L 472.21289 487.49219 C 469.75915 489.84842 524.94141 438.29883 524.94141 438.29883 C 526.57843 436.70939 525.40568 433.93764 523.125 434.00586 z M 337.09961 441.14258 C 336.45025 441.16148 335.83382 441.43284 335.38086 441.89844 L 282.49805 498.31641 C 280.0432 500.67268 338.91602 445.43359 338.91602 445.43359 C 340.54948 443.84396 339.37794 441.07632 337.09961 441.14258 z M 527.01172 445.02734 C 526.36236 445.04624 525.74595 445.31764 525.29297 445.7832 L 476.29492 498.31641 C 473.84121 500.67271 528.82812 449.31836 528.82812 449.31836 C 530.46156 447.72873 529.29002 444.96113 527.01172 445.02734 z M 530.90039 456.04492 C 530.25171 456.06382 529.63608 456.33556 529.18359 456.80078 L 491.20312 498.31641 C 488.74813 500.67268 532.71875 460.33594 532.71875 460.33594 C 534.35309 458.74563 533.17975 455.97678 530.90039 456.04492 z M 330.53125 462.61719 C 329.8819 462.63609 329.26547 462.90748 328.8125 463.37305 L 297.4043 498.31641 C 295.04199 500.67317 332.34766 466.91016 332.34766 466.91016 C 333.98465 465.32071 332.81192 462.549 330.53125 462.61719 z M 534.78906 467.06445 C 534.13944 467.08335 533.52295 467.35587 533.07031 467.82227 L 506.11133 498.31641 C 503.65634 500.67268 536.60547 471.35742 536.60547 471.35742 C 538.24253 469.76798 537.06978 466.99623 534.78906 467.06445 z M 538.67773 478.08398 C 538.02837 478.10288 537.41196 478.37424 536.95898 478.83984 L 521.01758 498.31641 C 518.56391 500.67271 540.49414 482.375 540.49414 482.375 C 542.12761 480.78537 540.95607 478.01773 538.67773 478.08398 z M 323.95703 484.09766 C 323.3074 484.11655 322.69093 484.38908 322.23828 484.85547 L 312.3125 498.31641 C 309.94868 500.67449 325.77539 488.39062 325.77539 488.39062 C 327.41325 486.80054 326.23872 484.02758 323.95703 484.09766 z M 542.56445 489.10352 C 541.91509 489.12241 541.29868 489.39378 540.8457 489.85938 L 535.92383 498.31641 C 533.55512 500.67317 544.38086 493.39648 544.38086 493.39648 C 546.01785 491.80704 544.84513 489.03533 542.56445 489.10352 z "
       style="color:#000000;font-style:normal;font-variant:normal;font-weight:normal;font-stretch:normal;font-size:medium;line-height:normal;font-family:sans-serif;font-variant-ligatures:normal;font-variant-position:normal;font-variant-caps:normal;font-variant-numeric:normal;font-variant-alternates:normal;font-feature-settings:normal;text-indent:0;text-align:start;text-decoration:none;text-decoration-line:none;text-decoration-style:solid;text-decoration-color:#000000;letter-spacing:normal;word-spacing:normal;text-transform:none;writing-mode:lr-tb;direction:ltr;text-orientation:mixed;dominant-baseline:auto;baseline-shift:baseline;text-anchor:start;white-space:normal;shape-padding:0;clip-rule:nonzero;display:inline;overflow:visible;visibility:visible;opacity:1;isolation:auto;mix-blend-mode:normal;color-interpolation:sRGB;color-interpolation-filters:linearRGB;solid-color:#000000;solid-opacity:1;vector-effect:none;fill:url(#linearGradient5007);fill-opacity:1;fill-rule:nonzero;stroke:none;stroke-width:5;stroke-linecap:round;stroke-linejoin:miter;stroke-miterlimit:4;stroke-dasharray:none;stroke-dashoffset:0;stroke-opacity:1;color-rendering:auto;image-rendering:auto;shape-rendering:auto;text-rendering:auto;enable-background:accumulate" />
  </g>
</svg>
