<?xml version="1.0" encoding="UTF-8" standalone="no"?>
<svg
   xmlns:dc="http://purl.org/dc/elements/1.1/"
   xmlns:cc="http://creativecommons.org/ns#"
   xmlns:rdf="http://www.w3.org/1999/02/22-rdf-syntax-ns#"
   xmlns:svg="http://www.w3.org/2000/svg"
   xmlns="http://www.w3.org/2000/svg"
   xmlns:xlink="http://www.w3.org/1999/xlink"
   xmlns:sodipodi="http://sodipodi.sourceforge.net/DTD/sodipodi-0.dtd"
   xmlns:inkscape="http://www.inkscape.org/namespaces/inkscape"
   width="210mm"
   height="297mm"
   viewBox="0 0 210 297"
   version="1.1"
   id="svg1470"
   inkscape:version="1.0.2-2 (e86c870879, 2021-01-15)"
   sodipodi:docname="HeaderLogo.svg">
  <defs
     id="defs1464">
    <linearGradient
       y2="-8084.5127"
       x2="5655.499"
       y1="-8084.5127"
       x1="5660.0015"
       gradientUnits="userSpaceOnUse"
       id="linearGradient927"
       xlink:href="#linearGradient1129"
       inkscape:collect="always" />
    <linearGradient
       id="linearGradient1129"
       inkscape:collect="always">
      <stop
         id="stop1125"
         offset="0"
         style="stop-color:#e6e6e6;stop-opacity:1;" />
      <stop
         id="stop1127"
         offset="1"
         style="stop-color:#1a1a1a;stop-opacity:1" />
    </linearGradient>
    <linearGradient
       y2="-8109.2778"
       x2="5641.854"
       y1="-8109.2778"
       x1="5635.1602"
       gradientUnits="userSpaceOnUse"
       id="linearGradient931"
       xlink:href="#linearGradient1099"
       inkscape:collect="always" />
    <linearGradient
       inkscape:collect="always"
       id="linearGradient1099">
      <stop
         style="stop-color:#892ca0;stop-opacity:1;"
         offset="0"
         id="stop1095" />
      <stop
         style="stop-color:#000000;stop-opacity:1"
         offset="1"
         id="stop1097" />
    </linearGradient>
    <linearGradient
       inkscape:collect="always"
       xlink:href="#linearGradient1099"
       id="linearGradient2067"
       gradientUnits="userSpaceOnUse"
       x1="5635.1602"
       y1="-8109.2778"
       x2="5641.854"
       y2="-8109.2778" />
  </defs>
  <sodipodi:namedview
     id="base"
     pagecolor="#ffffff"
     bordercolor="#666666"
     borderopacity="1.0"
     inkscape:pageopacity="0.0"
     inkscape:pageshadow="2"
     inkscape:zoom="0.49497475"
     inkscape:cx="925.43958"
     inkscape:cy="636.72124"
     inkscape:document-units="mm"
     inkscape:current-layer="layer1"
     inkscape:document-rotation="0"
     showgrid="false"
     inkscape:window-width="1920"
     inkscape:window-height="1027"
     inkscape:window-x="1912"
     inkscape:window-y="-8"
     inkscape:window-maximized="1" />
  <metadata
     id="metadata1467">
    <rdf:RDF>
      <cc:Work
         rdf:about="">
        <dc:format>image/svg+xml</dc:format>
        <dc:type
           rdf:resource="http://purl.org/dc/dcmitype/StillImage" />
        <dc:title></dc:title>
      </cc:Work>
    </rdf:RDF>
  </metadata>
  <g
     inkscape:label="Layer 1"
     inkscape:groupmode="layer"
     id="layer1">
    <g
       transform="matrix(2.7065447,0,0,2.7065447,-5012.2054,5566.2043)"
       id="g925">
      <path
         transform="matrix(8.2947611,0,0,8.2947611,-45021.164,65032.096)"
         d="m 5660.2372,-8086.8175 q 0,0.1498 -0.015,0.2584 -0.01,0.1085 -0.036,0.1757 -0.021,0.062 -0.057,0.088 -0.031,0.026 -0.078,0.026 -0.067,0 -0.217,-0.093 -0.1499,-0.093 -0.3979,-0.2015 -0.2481,-0.1085 -0.5943,-0.2015 -0.3411,-0.093 -0.7958,-0.093 -0.4858,0 -0.8785,0.1706 -0.3927,0.1653 -0.6718,0.4754 -0.2791,0.3049 -0.4289,0.739 -0.1499,0.4289 -0.1499,0.9508 0,0.5736 0.1499,1.0129 0.155,0.434 0.4289,0.7286 0.2739,0.2946 0.6563,0.4444 0.3876,0.1499 0.8526,0.1499 0.2274,0 0.4496,-0.052 0.2222,-0.052 0.4134,-0.155 v -1.5503 h -1.266 q -0.093,0 -0.1447,-0.1137 -0.052,-0.1189 -0.052,-0.3979 0,-0.1447 0.01,-0.2429 0.015,-0.098 0.041,-0.155 0.026,-0.062 0.062,-0.088 0.036,-0.031 0.083,-0.031 h 2.2582 q 0.083,0 0.1447,0.031 0.067,0.026 0.1137,0.083 0.052,0.057 0.078,0.1395 0.026,0.078 0.026,0.1809 v 2.6613 q 0,0.1551 -0.057,0.2739 -0.052,0.1137 -0.2222,0.1809 -0.1654,0.067 -0.4134,0.1395 -0.248,0.072 -0.5168,0.124 -0.2635,0.052 -0.5374,0.077 -0.2687,0.026 -0.5426,0.026 -0.801,0 -1.4366,-0.2274 -0.6304,-0.2325 -1.0697,-0.6666 -0.4392,-0.4393 -0.6718,-1.0645 -0.2325,-0.6305 -0.2325,-1.4263 0,-0.8217 0.248,-1.4728 0.2481,-0.6563 0.7028,-1.111 0.4548,-0.4599 1.0955,-0.7028 0.646,-0.2429 1.4366,-0.2429 0.4341,0 0.7907,0.062 0.3566,0.057 0.6201,0.1447 0.2687,0.083 0.4444,0.1809 0.1757,0.098 0.2429,0.1705 0.072,0.072 0.1034,0.2067 0.031,0.1292 0.031,0.3876 z"
         style="font-style:normal;font-variant:normal;font-weight:bold;font-stretch:normal;font-size:10.5833px;line-height:1.25;font-family:Calibri;-inkscape-font-specification:'Calibri, Bold';font-variant-ligatures:normal;font-variant-caps:normal;font-variant-numeric:normal;font-variant-east-asian:normal;white-space:pre;shape-inside:url(#rect1049);fill:url(#linearGradient927);fill-opacity:1;stroke:none;stroke-width:0.287079;stroke-miterlimit:4;stroke-dasharray:none"
         id="path919" />
      <g
         aria-label="A"
         id="g923"
         style="font-style:normal;font-variant:normal;font-weight:bold;font-stretch:normal;font-size:10.5833px;line-height:1.25;font-family:Calibri;-inkscape-font-specification:'Calibri, Bold';font-variant-ligatures:normal;font-variant-caps:normal;font-variant-numeric:normal;font-variant-east-asian:normal;white-space:pre;shape-inside:url(#rect1040);fill:url(#linearGradient931);fill-opacity:1;stroke:none;stroke-width:0.276711;stroke-miterlimit:4;stroke-dasharray:none"
         transform="matrix(8.6055602,0,0,8.6055602,-46632.7,67757.738)">
        <path
           d="m 5640.1898,-8106.4413 q 0.062,0.186 0.078,0.2945 0.015,0.1085 -0.041,0.1654 -0.057,0.052 -0.2015,0.062 -0.1447,0.016 -0.3979,0.016 -0.2636,0 -0.4134,-0.01 -0.1447,-0.01 -0.2222,-0.026 -0.078,-0.026 -0.1086,-0.067 -0.031,-0.041 -0.052,-0.1086 l -0.4496,-1.3436 h -2.5115 l -0.4237,1.3075 q -0.021,0.072 -0.057,0.124 -0.031,0.047 -0.1085,0.078 -0.072,0.026 -0.2119,0.036 -0.1343,0.01 -0.3565,0.01 -0.2378,0 -0.3721,-0.016 -0.1344,-0.015 -0.186,-0.072 -0.052,-0.062 -0.036,-0.1706 0.016,-0.1085 0.078,-0.2894 l 2.0619,-5.9324 q 0.031,-0.088 0.072,-0.1395 0.041,-0.057 0.1292,-0.083 0.093,-0.031 0.2532,-0.036 0.1602,-0.01 0.4238,-0.01 0.3049,0 0.4857,0.01 0.1809,0.01 0.2791,0.036 0.1033,0.026 0.1447,0.083 0.046,0.057 0.078,0.155 z m -3.0695,-4.9041 h -0.01 l -0.9457,2.8422 h 1.8966 z"
           style="font-style:normal;font-variant:normal;font-weight:bold;font-stretch:normal;font-size:10.5833px;font-family:Calibri;-inkscape-font-specification:'Calibri, Bold';font-variant-ligatures:normal;font-variant-caps:normal;font-variant-numeric:normal;font-variant-east-asian:normal;fill:url(#linearGradient2067);fill-opacity:1;stroke:none;stroke-width:0.276711;stroke-miterlimit:4;stroke-dasharray:none"
           id="path921" />
      </g>
    </g>
  </g>
</svg>
